<svg xmlns="http://www.w3.org/2000/svg" id="Layer_1" data-name="Layer 1" viewBox="0 0 60.13 60"><defs><style>.cls-1{fill:#0072c6}</style></defs><title>build_plan_icons_lines 60PX2</title><polygon points="19.59 40.5 15.3 36.15 16.72 34.75 19.59 37.65 24.25 32.94 25.67 34.34 19.59 40.5" class="cls-1"/><polygon points="19.59 29.62 15.3 25.28 16.72 23.87 19.59 26.78 24.25 22.06 25.67 23.46 19.59 29.62" class="cls-1"/><rect width="14" height="2.01" x="29.94" y="48.02" class="cls-1"/><rect width="14" height="2.01" x="29.94" y="36.02" class="cls-1"/><rect width="14" height="2.01" x="29.94" y="24.02" class="cls-1"/><path d="M36.1,9V8c0-3.34-2.92-6-6.64-6A6.39,6.39,0,0,0,23.1,8.45V9H8.1V58.06h44V9Zm-11,2V8.45A4.39,4.39,0,0,1,29.46,4c2.25,0,4.64,1.38,4.64,4v3h7v6h-22V11Zm25,45.05h-40V11h7v8h26V11h7Z" class="cls-1"/></svg>